<svg version="1.1" id="Layer_1" xmlns="http://www.w3.org/2000/svg" xmlns:xlink="http://www.w3.org/1999/xlink" x="0px" y="0px"
	 width="100%" viewBox="0 0 1024 976" enable-background="new 0 0 1024 976" xml:space="preserve">
<path fill="#0A2540" opacity="1.000000" stroke="none" 
	d="
M477.254883,475.938538 
	C481.507233,475.475769 485.309265,474.773041 489.110718,474.776520 
	C493.695831,474.780670 495.153320,472.321259 495.611389,468.330048 
	C496.899200,457.108917 498.115173,445.873779 499.735443,434.698730 
	C500.663635,428.297272 502.100616,421.944489 503.717041,415.675079 
	C505.339935,409.380585 510.704193,406.176636 517.048096,407.164093 
	C523.968018,408.241211 527.539185,412.091522 527.299744,418.935242 
	C526.961426,428.607056 524.272034,437.955109 522.932190,447.489441 
	C521.900757,454.828949 520.249451,462.135895 520.359070,469.982391 
	C527.764465,470.173615 534.489990,468.160034 541.340393,467.320984 
	C548.268433,466.472412 555.141724,465.186249 562.056824,464.219696 
	C568.513184,463.317291 573.556335,466.121735 574.833801,471.133087 
	C576.011292,475.752716 572.939575,480.766907 567.015686,482.937073 
	C556.168640,486.910828 544.657166,488.026398 533.412903,490.288391 
	C531.945374,490.583649 530.483582,490.914154 529.007812,491.160980 
	C518.052124,492.993591 517.767822,493.005859 518.440796,503.876801 
	C519.159729,515.491089 520.101440,527.128479 524.337524,538.177490 
	C525.537659,541.307922 526.972839,544.294373 528.845032,547.065430 
	C535.040161,556.234924 543.404114,558.797791 553.570312,554.420288 
	C561.719971,550.911072 568.063599,545.043762 573.633545,538.277893 
	C587.099182,521.921143 596.800842,503.322784 605.508972,484.179382 
	C610.126526,474.028412 614.120850,463.595642 618.608032,453.383026 
	C620.747131,448.514557 620.923462,443.374359 621.551270,438.272522 
	C621.931580,435.181549 620.784729,434.052856 617.532593,434.679352 
	C602.457581,437.583557 587.367004,440.309296 574.930542,450.420868 
	C572.356079,452.514099 569.130249,453.222015 566.030334,451.435547 
	C562.874939,449.617035 561.567261,446.630341 561.680359,443.011322 
	C561.900879,435.953003 566.111206,431.281952 571.430664,427.569702 
	C581.174561,420.769836 592.479431,417.724701 603.815918,414.925812 
	C608.980347,413.650726 614.210510,412.544250 619.472900,411.799530 
	C622.621826,411.353851 623.511902,409.932281 623.831360,406.958130 
	C625.659790,389.933655 627.171814,372.849945 629.800232,355.943207 
	C633.037354,335.121185 638.028137,314.700562 651.410339,297.580200 
	C661.197510,285.059021 676.850464,280.667236 691.230469,286.422119 
	C704.019470,291.540344 709.445312,302.350647 712.127380,314.961609 
	C714.652039,326.832520 712.265503,338.100464 707.501831,349.006165 
	C705.731873,353.057983 703.066589,356.474670 699.506836,359.074127 
	C696.335083,361.390167 692.800598,362.306549 689.292053,359.851135 
	C685.688171,357.329041 686.370605,353.863586 687.733826,350.416779 
	C691.262573,341.494720 693.413452,332.344757 692.783997,322.647949 
	C692.620667,320.131897 692.274414,317.697388 691.610535,315.280212 
	C690.218872,310.212677 687.188477,306.592133 681.978394,305.497375 
	C676.444824,304.334686 672.263672,307.064728 669.032593,311.263855 
	C665.026123,316.470520 662.461365,322.438812 660.428955,328.650635 
	C654.595825,346.478241 652.167114,364.933777 650.283447,383.491638 
	C649.746094,388.785187 649.174500,394.075256 648.627197,399.367798 
	C648.373474,401.821381 647.916565,404.284393 648.921570,407.256256 
	C660.939148,405.825348 672.824524,403.734253 684.629700,401.128754 
	C692.635376,399.361908 700.284912,396.577637 707.701172,393.108551 
	C710.630920,391.738159 713.745361,390.296936 716.275146,393.605652 
	C718.664795,396.731354 717.766174,400.047760 715.643311,402.854218 
	C711.670959,408.105835 706.630554,412.130402 700.723755,415.130371 
	C686.579651,422.313812 671.336365,425.670410 655.859558,428.260101 
	C655.203186,428.369934 654.529907,428.381409 653.875366,428.499237 
	C646.500488,429.826660 646.756714,429.848938 646.183411,437.518738 
	C643.415466,474.550385 642.554016,511.677460 640.486389,548.744263 
	C639.123108,573.182678 638.424683,597.657593 637.221680,622.105957 
	C635.880188,649.369202 633.875183,676.587830 631.532288,703.786804 
	C629.933044,722.352783 628.126465,740.881287 625.317383,759.304993 
	C623.923889,768.444214 618.486084,773.294739 610.752686,772.224731 
	C604.900879,771.414978 601.810486,767.355408 599.858826,762.331116 
	C593.825134,746.797546 588.570312,730.992371 584.737488,714.770386 
	C578.338013,687.684998 576.301880,660.132812 577.915222,632.433838 
	C579.063782,612.713257 580.322449,592.862976 587.696899,574.111267 
	C589.608765,569.249817 591.564270,564.490906 596.558594,561.872864 
	C598.231323,560.995972 599.954468,560.146973 601.733521,561.241455 
	C603.770691,562.494690 602.930908,564.453857 602.544617,566.212341 
	C596.210205,595.051514 594.899841,624.278015 596.400818,653.634033 
	C597.421753,673.600281 600.342773,693.341003 606.303955,712.522156 
	C606.480225,713.089355 606.727295,713.634521 607.482422,715.594299 
	C614.015747,638.528992 616.191345,562.746582 617.758911,486.598816 
	C616.868652,488.601349 615.929016,490.583588 615.095764,492.609589 
	C607.046082,512.179932 599.128235,531.818970 587.002319,549.365356 
	C579.424500,560.330566 570.565979,569.920837 558.163513,575.604797 
	C538.772278,584.491760 516.470703,577.147034 506.010193,558.500671 
	C502.482025,552.211548 500.274994,545.434937 498.062103,537.339783 
	C495.719299,542.234497 493.952576,546.233337 491.927795,550.096863 
	C486.348724,560.742432 479.612610,570.432556 468.054749,575.340027 
	C453.718842,581.427002 438.008820,576.626221 429.486053,563.563293 
	C421.556610,551.409729 418.612488,537.566101 416.715363,523.460754 
	C415.896576,517.372925 415.435883,511.236847 414.707123,504.089233 
	C410.450714,520.017151 405.177948,534.511841 398.028900,548.238281 
	C393.705109,556.540222 388.527557,564.322876 380.859802,570.044617 
	C368.052002,579.601929 351.559082,577.162354 341.967590,564.320312 
	C334.722290,554.619690 332.163422,543.241699 330.844543,531.592590 
	C327.504852,502.094360 329.541748,472.787994 334.781982,443.657379 
	C336.402710,434.647797 341.361298,430.226746 349.017181,430.578888 
	C356.359314,430.916595 361.259460,436.345337 360.072113,443.586151 
	C357.919189,456.715424 355.552521,469.815460 354.816742,483.116211 
	C353.787231,501.725433 352.410736,520.385254 357.373322,538.714233 
	C358.772217,543.880920 360.234161,550.163513 366.202148,550.922363 
	C372.253021,551.691772 375.139404,545.721436 377.648621,541.143738 
	C387.870300,522.495667 394.322052,502.345459 400.695129,482.160004 
	C406.663025,463.257874 410.439392,443.801697 415.650818,424.713013 
	C417.852234,416.649567 425.013123,412.823792 433.086304,415.199005 
	C439.406647,417.058563 442.663269,421.822327 442.198944,429.445862 
	C441.531281,440.406769 440.147186,451.333862 439.757935,462.299835 
	C438.925659,485.746704 437.647491,509.254669 443.322235,532.387268 
	C444.680908,537.925781 446.733398,543.189209 449.687012,548.064331 
	C454.775024,556.462524 462.347839,557.621704 469.726013,551.117615 
	C473.528168,547.765991 476.225616,543.508667 478.607269,539.115417 
	C484.851532,527.596924 488.299042,515.068726 491.444183,502.450928 
	C492.366852,498.749268 490.546875,498.206268 487.328949,498.661621 
	C480.246552,499.663788 473.135132,500.482483 466.018555,501.209656 
	C463.555206,501.461365 461.036560,501.490662 458.582001,500.730316 
	C453.364594,499.114075 449.914581,494.921356 449.728333,489.852631 
	C449.541473,484.767242 452.638336,480.461945 458.082550,478.721069 
	C464.153046,476.779938 470.596985,477.159607 477.254883,475.938538 
z"/>
<path fill="#0A2540" opacity="1.000000" stroke="none" 
	d="
M42.688141,552.000000 
	C42.689285,465.671295 42.639858,379.842560 42.714943,294.013916 
	C42.750092,253.837357 68.327141,219.513138 106.606476,208.024399 
	C113.640656,205.913223 120.884010,204.706589 128.250366,204.702377 
	C188.747086,204.667770 249.243927,204.727432 309.740295,204.577179 
	C314.598755,204.565109 316.382294,206.082184 315.943604,210.852615 
	C315.654999,213.991379 315.676605,217.202606 315.976837,220.341461 
	C316.447571,225.261963 314.306824,226.399384 309.627777,226.529465 
	C278.800507,227.386520 247.972977,226.693954 217.147186,226.846375 
	C188.316055,226.988907 159.463104,227.595871 130.657974,226.728882 
	C102.821465,225.891037 72.695709,248.051193 66.372757,280.060852 
	C65.431252,284.827179 65.073006,289.617065 65.071762,294.452118 
	C65.044594,400.446198 65.203682,506.440796 64.884552,612.434021 
	C64.786957,644.849487 88.111801,671.851074 117.356262,678.096008 
	C122.236481,679.138123 127.176445,679.724060 132.211502,679.722839 
	C273.870544,679.688293 415.529572,679.700806 557.188599,679.703003 
	C564.583008,679.703125 564.601196,679.689392 565.843384,686.919189 
	C566.096191,688.390686 566.386108,689.916077 566.255859,691.380798 
	C565.974426,694.544128 567.763611,697.561707 566.917480,700.636780 
	C565.656799,701.732788 564.275818,701.414551 562.971008,701.414490 
	C419.645477,701.410278 276.319916,701.382629 132.994370,701.397827 
	C100.907303,701.401245 75.640228,688.159851 57.454994,661.947510 
	C47.972122,648.278809 42.853004,632.792542 42.725151,615.994385 
	C42.564075,594.830688 42.687748,573.664917 42.688141,552.000000 
z"/>
<path fill="#0A2540" opacity="1.000000" stroke="none" 
	d="
M995.333923,303.000153 
	C995.342041,407.154449 994.898987,510.811646 995.564270,614.461731 
	C995.859070,660.395142 954.658142,701.779053 908.559814,701.522827 
	C823.572571,701.050537 738.580811,701.391479 653.590942,701.387939 
	C646.833618,701.387634 646.915649,701.375061 647.495667,694.870361 
	C647.791138,691.557129 647.827026,688.211426 647.804626,684.881653 
	C647.779724,681.172852 649.203979,679.430603 653.180481,679.629883 
	C658.333618,679.888245 663.509399,679.693054 668.675476,679.693115 
	C748.166016,679.694458 827.656555,679.732788 907.147095,679.679077 
	C938.940674,679.657593 965.730835,657.772339 972.164551,626.620850 
	C973.067505,622.248779 973.598938,617.714355 973.602051,613.254578 
	C973.675415,506.767303 973.691895,400.279968 973.624756,293.792664 
	C973.604553,261.813019 952.301025,235.308273 921.156250,228.003510 
	C916.888062,227.002457 912.577759,226.904892 908.249146,226.903625 
	C858.421753,226.889023 808.594299,226.920120 758.766968,226.865524 
	C746.773499,226.852386 734.780334,226.484894 722.786743,226.463409 
	C719.382812,226.457306 717.863342,225.174469 717.916809,221.798599 
	C717.985474,217.467026 717.974670,213.133621 717.947266,208.801331 
	C717.928894,205.896362 719.230530,204.477142 722.208008,204.676392 
	C723.368896,204.754089 724.540039,204.672287 725.706543,204.672180 
	C786.532654,204.666275 847.358704,204.636505 908.184814,204.664810 
	C950.926697,204.684692 988.009888,236.841431 994.401733,279.078247 
	C995.585449,286.899689 995.091492,294.692505 995.333923,303.000153 
z"/>
<path fill="#0A2540" opacity="1.000000" stroke="none" 
	d="
M308.429626,500.625244 
	C310.631226,517.898926 312.921539,534.693115 317.065613,551.177551 
	C318.858185,558.308044 321.303772,565.176636 324.305420,571.882629 
	C327.535004,579.097900 326.456848,584.587158 321.420105,587.897522 
	C315.405090,591.850830 307.056335,590.933228 302.214386,585.672852 
	C298.737518,581.895447 297.105225,577.104736 295.563110,572.367188 
	C289.560883,553.927612 286.823151,534.858887 284.535980,515.669495 
	C280.272308,479.897247 279.270020,443.977692 279.053284,408.010742 
	C279.010345,400.886688 280.183319,393.771942 279.254364,385.725372 
	C271.770050,401.776642 264.651672,417.089172 257.493622,432.383087 
	C248.386749,451.840912 239.176559,471.247833 229.148315,490.255951 
	C226.097565,496.038483 222.190842,500.207855 214.997086,500.420135 
	C206.813812,500.661621 201.882248,496.392395 198.633987,489.574005 
	C189.675659,470.769623 181.650558,451.572876 174.750198,431.913116 
	C174.001633,429.780396 173.239868,427.652374 171.821960,425.654236 
	C171.330185,431.546753 170.815170,437.437439 170.350723,443.332123 
	C168.403580,468.043854 166.408844,492.752045 164.553757,517.470703 
	C163.047195,537.545166 161.698700,557.631531 160.315323,577.715027 
	C159.911133,583.583069 159.694672,589.430481 153.971848,593.160339 
	C149.040665,596.374268 144.121979,595.950317 139.364502,593.159180 
	C134.618469,590.374695 132.514725,585.844666 133.063934,580.465942 
	C136.491547,546.897949 140.231766,513.360901 143.500488,479.777863 
	C145.884506,455.284271 147.712402,430.736389 149.769058,406.211121 
	C150.464066,397.923370 151.006012,389.621765 151.786224,381.342346 
	C152.875931,369.778625 162.020218,363.369781 172.316620,366.669983 
	C176.605927,368.044800 178.619583,371.283783 180.180511,375.098114 
	C186.617371,390.827515 191.409073,407.143158 197.299362,423.066162 
	C201.982330,435.725586 207.427261,448.066467 213.129501,460.295197 
	C213.685562,461.487762 214.085953,462.790924 215.616318,463.700317 
	C218.824646,459.856567 220.402161,455.108154 222.498276,450.703430 
	C239.532928,414.907440 256.434357,379.048126 273.448303,343.242218 
	C275.358185,339.222870 276.880859,334.795868 280.973328,332.284912 
	C286.369904,328.973907 292.041016,328.658783 297.611053,331.690002 
	C303.400665,334.840759 305.389130,340.465149 305.104950,346.483154 
	C304.365906,362.132233 304.103180,377.783112 303.987091,393.441406 
	C303.809235,417.431183 303.935059,441.420929 305.413513,465.372192 
	C306.130585,476.988831 307.384094,488.572357 308.429626,500.625244 
z"/>
<path fill="#0A2540" opacity="1.000000" stroke="none" 
	d="
M790.650879,445.000122 
	C790.699341,419.520111 790.193298,394.527283 791.785767,369.576569 
	C792.548035,357.632690 793.628113,345.704865 794.800293,333.793030 
	C795.424438,327.450653 801.347351,323.193085 808.124512,323.739471 
	C814.776062,324.275757 818.781189,328.455505 818.372070,335.382965 
	C816.556335,366.130585 814.638855,396.869476 814.945740,427.695190 
	C815.053589,438.523071 815.052673,449.352051 815.178284,460.179657 
	C815.198730,461.944031 814.786072,463.816040 816.195618,466.168060 
	C821.766541,460.974030 827.370605,456.113892 832.557190,450.842957 
	C846.503113,436.670288 858.958862,421.305634 869.056824,404.104675 
	C872.867554,397.613434 877.628845,395.563751 883.497986,397.631500 
	C890.895813,400.237823 893.814148,408.025085 889.903625,415.767151 
	C885.368469,424.745911 878.864807,432.408997 872.517151,440.117645 
	C861.801514,453.130737 849.951355,465.068939 837.146118,476.024567 
	C834.479858,478.305756 833.965698,480.134308 835.930298,483.155182 
	C848.114075,501.889160 860.679260,520.305847 876.464966,536.301514 
	C883.344788,543.272827 891.022461,548.896423 900.181396,552.544250 
	C907.971008,555.646729 910.261353,559.766785 908.310181,566.140259 
	C906.481079,572.114868 900.545654,575.265808 893.462280,573.934448 
	C883.176270,572.001221 874.537659,566.770020 866.630371,560.209351 
	C849.864807,546.298645 837.471497,528.778137 825.928040,510.576172 
	C822.993530,505.949066 820.161011,501.257263 816.554871,495.418427 
	C815.836304,501.875488 816.167908,507.178131 816.556763,512.431213 
	C817.858215,530.013428 819.365967,547.580261 820.696045,565.160461 
	C821.158875,571.277100 817.131592,576.101501 811.016418,577.151062 
	C804.072144,578.342896 798.250305,574.982849 796.762756,568.590027 
	C794.448730,558.645020 794.476562,548.413879 793.944702,538.315002 
	C792.316345,507.400574 790.180298,476.492737 790.650879,445.000122 
z"/>
<path fill="#0A2540" opacity="1.000000" stroke="none" 
	d="
M674.164368,447.158447 
	C685.652527,436.309875 699.029541,430.304749 714.406738,429.824463 
	C736.897644,429.122070 753.421814,440.248077 761.934143,461.066833 
	C767.218933,473.991821 769.158691,487.607269 770.383240,501.431732 
	C771.645020,515.676880 770.215576,530.104187 773.342529,544.207092 
	C774.482605,549.349060 776.786926,553.880798 780.447693,557.745911 
	C784.536438,562.062683 785.584106,567.107239 783.494690,571.371277 
	C781.583435,575.271729 776.021301,578.111938 770.755920,577.638672 
	C762.298523,576.878479 757.440491,571.421631 754.037476,564.310303 
	C752.970215,562.079956 752.314758,559.652588 751.227905,556.642944 
	C748.826233,558.669800 746.803467,560.573975 744.586792,562.216614 
	C726.002869,575.988403 705.541565,583.217957 682.316833,578.168213 
	C659.843384,573.281860 648.825623,551.509583 657.844299,530.270325 
	C667.108521,508.453156 684.864380,498.370819 707.651306,496.835693 
	C723.018616,495.800385 724.877197,496.823761 745.171997,505.740356 
	C746.671326,501.572723 745.040344,497.561340 744.645630,493.575897 
	C743.702942,484.056793 741.246155,474.890015 736.784729,466.404236 
	C731.010803,455.422150 719.486755,450.785217 707.554688,454.130585 
	C698.074219,456.788513 691.100708,462.611603 685.789917,470.681183 
	C683.605652,474.000336 680.887756,476.602417 676.768372,477.190338 
	C667.495361,478.513824 660.689941,469.995117 664.036194,461.069763 
	C666.060852,455.669403 669.778809,451.354156 674.164368,447.158447 
M703.266846,556.787659 
	C716.464722,555.696350 728.161682,550.884521 738.153198,542.232239 
	C745.313416,536.031738 745.338623,532.262878 738.156677,526.029297 
	C728.045593,517.253296 716.126465,515.333130 703.475525,518.498840 
	C693.293701,521.046692 685.391846,526.918396 681.311523,536.978027 
	C677.314758,546.831604 682.321472,555.374817 692.849365,556.638428 
	C695.973022,557.013367 699.168640,556.788696 703.266846,556.787659 
z"/>
<path fill="#0A2540" opacity="1.000000" stroke="none" 
	d="
M550.366821,242.408905 
	C544.818237,243.603149 541.665527,241.127777 538.592712,237.250320 
	C528.452148,224.454544 517.997864,211.907059 507.617981,199.302109 
	C506.829712,198.344833 506.334900,196.971329 504.298340,196.549561 
	C504.298340,208.649689 504.292236,220.586929 504.300140,232.524170 
	C504.307495,243.609756 504.318542,243.558563 493.223663,242.592529 
	C490.761780,242.378159 489.647308,241.443604 489.651825,238.911942 
	C489.691284,216.915085 489.696899,194.918076 489.652588,172.921234 
	C489.647125,170.209839 490.747559,169.085800 493.459412,168.859009 
	C498.765442,168.415253 502.711334,169.604248 506.336487,174.276382 
	C517.151245,188.214584 528.624756,201.641586 539.909058,215.350922 
	C541.365051,214.467819 540.620178,213.007416 540.627319,211.883926 
	C540.705444,199.552704 540.894714,187.215836 540.593506,174.891739 
	C540.476929,170.118896 542.297180,168.552368 546.686340,168.981689 
	C547.676025,169.078476 548.695618,169.076889 549.682495,168.960464 
	C554.082397,168.441422 555.436584,170.404648 555.400696,174.720108 
	C555.227417,195.549210 555.271423,216.380692 555.357361,237.210831 
	C555.371094,240.542252 554.834534,242.868088 550.366821,242.408905 
z"/>
<path fill="#0A2540" opacity="1.000000" stroke="none" 
	d="
M467.778992,211.280365 
	C472.472748,221.561279 476.994110,231.507645 481.697235,241.853897 
	C476.644257,243.516556 472.066559,243.009094 467.505646,242.382370 
	C465.328796,242.083221 464.447021,240.119339 464.092651,238.458176 
	C461.507782,226.340668 453.514404,223.627777 442.463501,225.264389 
	C438.390106,225.867645 434.129395,225.648163 429.997528,225.295456 
	C425.498779,224.911469 422.609375,226.368530 421.350952,230.805496 
	C421.035583,231.917404 420.467804,232.958176 420.010559,234.029297 
	C416.223816,242.900497 412.043060,244.730011 402.233185,241.738464 
	C401.233734,239.446808 402.724243,237.600403 403.572083,235.719406 
	C412.803894,215.238358 422.233521,194.844818 431.261475,174.274811 
	C433.257812,169.726196 436.126740,168.685501 440.569000,168.826935 
	C445.002106,168.968048 448.858307,168.708817 451.081329,174.049271 
	C456.258301,186.486099 462.058716,198.663391 467.778992,211.280365 
M431.112915,208.359665 
	C430.652161,209.710922 429.538208,210.982620 430.555511,212.510132 
	C437.750916,212.510132 444.881989,212.510132 452.657928,212.510132 
	C448.953979,203.374405 445.601746,194.981766 440.724274,185.972961 
	C437.357117,193.799728 434.371735,200.739105 431.112915,208.359665 
z"/>
<path fill="#0A2540" opacity="1.000000" stroke="none" 
	d="
M682.427002,195.655762 
	C689.438721,211.096146 696.297913,226.191086 703.361450,241.735809 
	C698.119812,243.315689 693.483765,242.574738 688.958374,242.229858 
	C686.769409,242.063034 686.023315,239.451263 685.581787,237.644409 
	C682.913086,226.723816 675.915894,223.591202 665.357971,225.190765 
	C660.147522,225.980133 654.717224,225.448715 649.392395,225.300674 
	C646.492676,225.220078 644.642944,226.225449 643.672485,228.997467 
	C643.069275,230.720612 642.233337,232.362671 641.494873,234.038071 
	C637.456482,243.199936 633.487549,244.841507 623.163818,241.468155 
	C623.165771,238.020493 625.308350,235.294556 626.640381,232.353119 
	C635.497681,212.794235 644.681152,193.380661 653.327698,173.730286 
	C655.734375,168.261032 659.812317,169.161575 664.048218,168.909576 
	C668.144165,168.665909 670.935425,169.732819 672.635925,173.917419 
	C675.578308,181.158279 679.034119,188.190552 682.427002,195.655762 
M656.161621,200.576965 
	C654.805237,204.572510 652.168518,208.153610 651.923889,213.462234 
	C659.504578,212.944931 666.749634,214.241211 674.792786,212.912918 
	C670.774170,203.845825 667.034058,195.407135 662.771545,185.789749 
	C660.211975,191.452484 658.311646,195.656738 656.161621,200.576965 
z"/>
<path fill="#0A2540" opacity="1.000000" stroke="none" 
	d="
M525.874756,287.781189 
	C530.304626,289.636597 533.945068,292.022766 536.463013,295.667023 
	C538.706238,298.913666 541.516663,299.808746 545.366760,299.713104 
	C554.368225,299.489624 561.117798,303.913300 565.301697,311.599670 
	C569.511780,319.334229 569.132690,327.295349 564.205811,334.790436 
	C560.926575,339.779022 556.025391,342.621887 550.459290,344.128601 
	C547.235229,345.001343 546.193115,346.667328 546.258850,349.795135 
	C546.349731,354.120789 546.110535,358.452667 546.050781,362.782410 
	C545.963074,369.136017 545.342224,369.340515 539.454224,367.455017 
	C525.151917,362.874969 510.764069,362.967834 496.383392,367.569977 
	C507.150330,372.890564 519.179810,370.789886 531.123047,373.359985 
	C527.458130,376.831787 523.273376,376.453033 519.588440,376.937134 
	C510.903778,378.078064 502.347076,377.014984 493.976807,374.300781 
	C488.811432,372.625824 486.388458,369.374451 486.673309,363.883423 
	C486.888672,359.730804 486.491272,355.543610 486.760681,351.397430 
	C487.030243,347.248077 485.640808,345.325562 481.378723,344.101227 
	C465.209412,339.456573 459.209351,320.022583 469.952301,307.682007 
	C474.651764,302.283630 480.646240,299.207733 487.994934,299.636536 
	C491.066101,299.815704 493.186340,299.033630 495.203735,296.436157 
	C502.828400,286.619110 513.306580,283.731903 525.874756,287.781189 
M498.405914,302.983368 
	C495.923431,306.804932 496.046448,311.878357 493.058289,315.395477 
	C490.276611,314.589386 490.579468,312.647095 490.743011,311.134125 
	C491.281921,306.149170 488.566589,305.563354 484.612488,306.147583 
	C476.956635,307.278717 471.077576,314.363617 471.250580,322.391144 
	C471.438721,331.121338 477.832520,338.006714 486.447876,338.640167 
	C495.483612,339.304596 502.920929,335.493561 509.878784,330.241913 
	C511.270874,329.191193 512.396118,326.970337 514.877258,328.019958 
	C514.936401,330.440125 513.418518,331.893097 512.198242,333.388977 
	C507.969299,338.572998 502.485199,341.925781 496.160461,343.977234 
	C494.639557,344.470581 492.461884,344.462891 492.573456,346.723969 
	C492.797333,351.262024 493.316315,355.785522 493.755615,360.795319 
	C509.272705,356.354187 524.204102,356.821320 539.971497,360.441193 
	C539.971497,354.592285 539.833618,349.619812 540.017395,344.659271 
	C540.151855,341.028809 541.450928,338.860931 545.923462,338.370270 
	C555.818298,337.284698 562.702820,329.030426 561.401123,320.924835 
	C559.636475,309.936493 551.589478,304.328552 540.396240,306.695496 
	C537.383484,307.332550 535.848999,306.828308 534.460999,304.076782 
	C526.684570,288.661407 506.400757,288.671448 498.405914,302.983368 
z"/>
<path fill="#0A2540" opacity="1.000000" stroke="none" 
	d="
M345.896851,207.989059 
	C340.519592,195.254196 335.292816,182.868713 329.794556,169.839951 
	C335.060181,168.595444 339.630676,168.757706 344.156128,169.463623 
	C346.207031,169.783539 346.648987,171.972641 347.363037,173.631622 
	C353.617493,188.162643 359.845795,202.704910 366.100952,217.235626 
	C366.797241,218.853012 367.026154,220.787277 369.297668,221.991104 
	C370.548187,219.435852 371.849854,216.983353 372.970734,214.450836 
	C378.701447,201.502899 384.678528,188.651749 389.942871,175.515640 
	C392.074036,170.197723 395.104614,168.254669 400.476135,168.978058 
	C402.565369,169.259430 404.780426,168.698517 406.611267,169.710297 
	C407.630280,171.782028 406.455780,173.209824 405.821564,174.664871 
	C396.636597,195.736557 387.293671,216.740616 378.294617,237.891098 
	C376.383209,242.383484 373.333435,243.103561 369.218658,242.943558 
	C365.106720,242.783676 361.177368,243.489761 359.073853,238.085358 
	C355.150970,228.006531 350.433899,218.236801 345.896851,207.989059 
z"/>
<path fill="#0A2540" opacity="1.000000" stroke="none" 
	d="
M603.267822,216.000061 
	C603.261719,223.663635 603.181335,230.828293 603.283936,237.990311 
	C603.329346,241.161163 602.076782,242.344879 598.869019,242.469833 
	C588.883545,242.858841 588.540833,242.977341 588.265015,232.932953 
	C587.867310,218.453323 587.602356,203.953003 588.492798,189.474228 
	C588.943359,182.147736 588.826477,181.938660 581.345154,181.953018 
	C577.346924,181.960693 573.346436,181.908035 569.351135,182.024429 
	C565.893311,182.125168 564.233154,181.102234 564.426636,177.135559 
	C564.822632,169.017746 564.608398,168.999802 572.825195,168.993073 
	C588.651794,168.980148 604.478333,168.969620 620.304932,168.972366 
	C627.289734,168.973587 627.300171,168.998917 627.302673,175.325317 
	C627.305237,181.907166 627.219116,181.995255 620.066772,182.029953 
	C616.235168,182.048538 612.387451,182.252701 608.576050,181.974930 
	C604.319031,181.664703 603.103516,183.465271 603.200134,187.513657 
	C603.422791,196.837677 603.268982,206.170685 603.267822,216.000061 
z"/>
<path fill="#0A2540" opacity="1.000000" stroke="none" 
	d="
M529.284668,338.218811 
	C530.147156,334.650330 530.274780,331.078339 534.668091,328.911224 
	C535.623535,333.763123 533.745117,337.441498 532.651489,341.178741 
	C532.376709,342.117950 531.191895,342.594696 530.163818,342.064972 
	C528.682251,341.301666 528.998047,339.895294 529.284668,338.218811 
z"/>
</svg>